<svg xmlns="http://www.w3.org/2000/svg" xmlns:xlink="http://www.w3.org/1999/xlink" aria-hidden="true" role="img" class="iconify iconify--logos" width="31.88" height="32" preserveAspectRatio="xMidYMid meet" viewBox="0 0 256 257"><defs><linearGradient id="IconifyId1813088fe1f34c96e46" x1="-.828%" x2="57.636%" y1="7.652%" y2="78.411%"><stop offset="0%" stop-color="#41D1FF"></stop><stop offset="100%" stop-color="#BD34FE"></stop></linearGradient><linearGradient id="IconifyId1813088fe1f34c96e47" x1="43.376%" x2="50.316%" y1="2.242%" y2="89.03%"><stop offset="0%" stop-color="#FFEA83"></stop><stop offset="8.333%" stop-color="#FFDD35"></stop><stop offset="100%" stop-color="#FFA800"></stop></linearGradient></defs><path fill="url(#IconifyId1813088fe1f34c96e46)" d="M255.153 37.341L135.903 252.91c-2.15 3.737-7.469 3.737-9.619 0L6.031 37.341c-2.15-3.737.029-8.59 4.81-8.59h233.471c4.782 0 6.96 4.853 4.841 8.59z"></path><path fill="url(#IconifyId1813088fe1f34c96e47)" d="M185.443 9.14L132.492 102.6c-1.002 1.733-3.59 1.733-4.592 0L74.949 9.14c-1.002-1.733.262-3.912 2.296-3.912h105.909c2.033 0 3.297 2.179 2.295 3.912z"></path></svg>